# xmcd CD database file
#
# Track frame offsets:
#	150
#	16427
#	33220
#	47862
#	64465
#	90227
#	104617
#	159250
#	178062
#	198022
#	220510
#
# Disc length: 3782 seconds
#
# Revision: 0
# Processed by: cddbd v1.5.1PL2 Copyright (c) Steve Scherf et al.
# Submitted via: CDex 1.70beta2
#
DISCID=890ec40b
DTITLE=André Gagnon - Été
DYEAR=1999
DGENRE=New Age
TTITLE0=Un piano au soleil
TTITLE1=Comme en vacances
TTITLE2=Un orage à passer
TTITLE3=Virage à gauche
TTITLE4=Le grand repos
TTITLE5=Sunsonata
TTITLE6=Le Saint-Laurent
TTITLE7=Week-End
TTITLE8=Bobichon
TTITLE9=Un été fragile
TTITLE10=Mouvements
EXTD=YEAR: 1999
EXTT0=
EXTT1=
EXTT2=
EXTT3=
EXTT4=
EXTT5=
EXTT6=
EXTT7=
EXTT8=
EXTT9=
EXTT10=
PLAYORDER=
